<?xml version="1.0" encoding="UTF-8" standalone="no"?><!DOCTYPE svg PUBLIC "-//W3C//DTD SVG 1.1//EN" "http://www.w3.org/Graphics/SVG/1.1/DTD/svg11.dtd"><svg width="100%" height="100%" viewBox="0 0 256 256" version="1.1" xmlns="http://www.w3.org/2000/svg" xmlns:xlink="http://www.w3.org/1999/xlink" xml:space="preserve" xmlns:serif="http://www.serif.com/" style="fill-rule:evenodd;clip-rule:evenodd;stroke-linejoin:round;stroke-miterlimit:2;"><g id="Salmon.png"><path d="M126.503,153c-0.384,-0.013 -4.434,-0.149 -4.802,-0.004c-0.723,0.286 -0.503,1.458 -0.478,1.589c0.116,0.619 2.594,2.245 2.697,5.905c0.043,1.514 0.24,4.028 -2.378,4.347c-1.727,0.211 -1.698,-0.086 -3.265,-0.849c-2.746,-1.336 -5.124,-0.928 -7.529,-2.795c-1.689,-1.312 -1.911,-1.001 -3.454,-2.478c-3.309,-3.169 -3.478,-2.97 -3.759,-3.252c-0.741,-0.747 -0.603,-2.113 -2.997,-1.78c-1.445,0.201 -1.431,0.184 -3.04,0.183c-8.099,-0.005 -8.148,0.23 -10.919,-0.609c-2.147,-0.649 -11.812,-0.234 -19.09,-0.411c-2.437,-0.059 -5.432,-1.636 -7.027,-1.875c-2.812,-0.421 -2.936,0.552 -6.871,-0.721c-1.436,-0.465 -2.743,-0.305 -3.833,-1.087c-1.117,-0.802 -1.118,-0.78 -2.391,-1.323c-1.04,-0.443 -0.935,-0.644 -1.256,-0.984c-1.366,-1.445 -1.654,-0.835 -3.649,-1.052c-0.218,-0.024 -0.211,-0.039 -1.878,-0.55c-3.399,-1.041 -4.194,0.624 -8.986,-1.006c-1.959,-0.666 -2.034,-0.324 -4.002,-1.003c-0.171,-0.059 -2.763,-0.914 -3.004,-0.993c-2.187,-0.721 -2.452,-0.082 -4.268,-1.527c-1.221,-0.972 -5.608,-2.838 -6.558,-3.561c-2.626,-1.999 -2.743,-1.791 -2.946,-1.99c-1.067,-1.046 -0.622,-1.481 -2.395,-2.569c-1.916,-1.175 -2.51,-5.869 -0.016,-6.447c1.504,-0.349 1.511,0.257 3.045,0.057c0.071,-0.009 1.002,-0.671 1.02,-0.722c0.487,-1.438 -2.418,-1.143 -2.42,-4.993c-0.002,-3.291 1.758,-3.021 3.018,-4.384c1.623,-1.756 3.123,-1.241 5.231,-2.867c1.88,-1.451 2.054,-1.112 5.336,-2.297c1.74,-0.628 1.467,-1.07 1.907,-1.392c1.108,-0.809 4.611,-1.523 5.024,-1.607c2.12,-0.432 1.755,-1.334 3.856,-1.813c1.527,-0.348 1.522,-0.275 3.023,-0.765c1.866,-0.609 3.48,-0.109 4.867,-1.122c2.251,-1.644 2.514,-0.999 5.144,-1.852c1.862,-0.604 3.199,-0.1 5.813,-1.388c2.231,-1.099 2.299,-0.967 6.235,-1.029c2.539,-0.04 2.428,-0.778 4.973,-0.884c7.658,-0.318 7.85,0.387 11.15,-1.325c1.589,-0.824 2.74,-0.785 19.868,-0.791c19.411,-0.006 19.428,-0.081 21.036,0.416c2.188,0.677 2.353,0.747 4.221,-0.559c0.943,-0.659 2.765,-0.973 3.567,-1.575c1.818,-1.365 1.968,-1.027 4.235,-1.321c1.108,-0.144 2.075,-0.831 3.951,-0.958c2.522,-0.172 2.606,0.07 5.117,-1.227c3.166,-1.636 4.645,0.186 9.846,-1.341c0.47,-0.138 3.629,-1.065 6.029,1.079c0.364,0.326 1.542,2.062 1.667,2.247c1.282,1.891 -1.115,3.301 0.586,5.555c1.286,1.704 1.033,1.881 2.475,3.45c1.799,1.958 1.08,2.726 1.667,3.32c0.12,0.122 0.179,0.036 1.769,1.199c1.473,1.077 3.119,0.553 4.876,1.127c0.297,0.097 0.574,0.251 0.872,0.346c1.926,0.614 3.337,0.016 4.836,1.087c1.871,1.337 1.982,1.148 4.27,1.237c2.568,0.099 2.433,0.863 5.004,1.009c2.35,0.134 2.291,0.542 3.161,1.172c2.027,1.468 5.227,0.359 7.847,1.167c1.495,0.461 1.47,0.638 3.97,0.641c10.178,0.009 10.195,-0.107 11.952,-0.675c2.816,-0.911 3.265,0.343 6.813,-1.347c1.59,-0.757 1.577,-0.76 3.3,-1.082c1.655,-0.309 1.917,-0.794 3.951,-0.965c0.344,-0.029 0.693,-0 1.036,-0.042c2.33,-0.281 2.829,-1.677 5.965,-1.951c0.347,-0.03 0.699,-0.002 1.044,-0.049c1.499,-0.203 1.389,-0.555 2.877,-0.839c0.373,-0.071 0.754,-0.09 1.127,-0.162c2.273,-0.438 1.904,-1.424 3.876,-1.769c0.593,-0.104 3.59,-0.108 4.119,-0.017c4.095,0.702 6.295,9.991 6.337,11.333c0.188,6.11 0.145,8.545 -3.32,10.145c-4.024,1.858 1.4,3.167 2.244,6.8c0.354,1.524 0.312,1.515 0.783,3.027c0.523,1.679 0.419,6.475 0.407,7.039c-0.128,5.883 -0.151,6.057 -1.785,7.732c-3.337,3.422 -6.848,1.018 -8.764,0.717c-1.668,-0.261 -1.97,0.392 -3.368,-1.055c-1.303,-1.349 -2.889,-0.711 -4.63,-1.31c-0.442,-0.152 -2.522,-1.283 -2.701,-1.419c-0.948,-0.72 -0.898,-0.808 -2.363,-1.263c-3.974,-1.234 -3.834,-1.535 -4.302,-2.012c-1.055,-1.077 -2.545,-0.909 -3.645,-1.275c-2.187,-0.727 -2.293,-0.509 -4.143,-1.863c-1.645,-1.204 -2.111,-0.121 -5.881,-2.135c-0.3,-0.16 -0.924,-1.151 -4.844,-2.366c-2.824,-0.875 -4.513,0.522 -7.071,0.611c-4.573,0.159 -4.563,-0.059 -4.959,-0.038c-0.149,0.008 -0.246,0.192 -0.394,0.212c-0.146,0.02 -0.315,-0.189 -0.432,-0.099c-0.1,0.077 -0.246,1.107 -0.083,1.485c0.055,0.127 1.668,0.848 0.973,3.121c-0.074,0.243 -0.613,2.004 -1.061,2.989c-0.519,1.141 -1.321,0.889 -2.622,2.321c-0.173,0.191 -0.269,0.447 -0.458,0.623c-0.476,0.444 -3.331,1.91 -3.787,2.265c-1.828,1.425 -2.064,0.869 -4.277,1.516c-2.389,0.699 -2.444,0.735 -4.828,-0.005c-1.448,-0.449 -2.539,-0.298 -3.156,-0.415c-1.792,-0.341 -1.939,-1.473 -3.982,-1.864c-1.448,-0.277 -1.444,-0.206 -2.857,-0.699c-3.041,-1.061 -4.111,0.46 -7.067,0.612c-3.026,0.156 -3.196,-0.587 -11.001,1.678c-2.149,0.624 -13.399,0.335 -19.019,0.435Z" style="fill:#fefefe;fill-opacity:0.99;"/></g></svg>